# 3ds Max Wavefront OBJ Exporter v0.97b - (c)2007 guruware
# File Created: 25.04.2017 23:19:27

mtllib shield.mtl

#
# object shield
#

v  19.9359 53.5598 40.4467
v  -12.0485 55.6449 37.6395
v  -11.0264 31.6229 37.6627
v  19.9359 31.6721 40.4717
v  4.8969 -1.2231 36.9975
v  19.9359 -1.1904 39.4670
v  19.9359 7.6951 40.0048
v  -1.6525 7.6297 37.1956
v  19.9359 19.6836 40.2382
v  -7.7750 19.6263 37.4291
v  50.8983 31.6229 37.6627
v  51.9204 55.6449 37.6395
v  41.5244 7.6297 37.1956
v  47.6469 19.6263 37.4291
v  19.9359 -13.3409 38.2078
v  34.9750 -1.2231 36.9975
v  19.9208 53.5587 39.6311
v  19.9208 31.6839 39.8172
v  -10.8521 31.6721 37.0086
v  -11.8823 55.6721 36.8091
v  19.9208 -1.2026 39.0536
v  5.0496 -1.2491 36.5844
v  -1.4267 7.6722 36.7177
v  19.9208 7.6839 39.5262
v  19.9208 19.6839 39.6717
v  -7.5632 19.6722 36.8632
v  51.7239 55.6721 36.8091
v  50.6938 31.6721 37.0086
v  47.4049 19.6722 36.8632
v  41.2683 7.6722 36.7177
v  34.7920 -1.2491 36.5844
v  19.9208 55.6839 39.6176
v  19.9359 55.6850 40.4484
v  19.9208 -13.3388 37.8837
# 34 vertices

vn 0.0000 -0.0006 1.0000
vn -0.0876 -0.0027 0.9962
vn -0.0894 -0.0204 0.9958
vn -0.0000 -0.0123 0.9999
vn -0.1419 -0.1027 0.9845
vn -0.0064 -0.0867 0.9962
vn -0.0054 -0.0447 0.9990
vn -0.1140 -0.0766 0.9905
vn -0.0000 -0.0277 0.9996
vn -0.0955 -0.0505 0.9941
vn 0.0894 -0.0204 0.9958
vn 0.0876 -0.0027 0.9962
vn 0.1202 -0.0737 0.9900
vn 0.0955 -0.0505 0.9941
vn 0.0000 -0.1031 0.9947
vn 0.1604 -0.1312 0.9783
vn 0.0000 -0.0066 -1.0000
vn -0.0000 0.0051 -1.0000
vn 0.0899 0.0132 -0.9959
vn 0.0881 -0.0046 -0.9961
vn -0.0000 0.0846 -0.9964
vn 0.1622 0.1232 -0.9790
vn 0.1216 0.0664 -0.9904
vn 0.0000 0.0326 -0.9995
vn 0.0000 0.0206 -0.9998
vn 0.0963 0.0436 -0.9944
vn -0.0881 -0.0046 -0.9961
vn -0.0899 0.0132 -0.9959
vn -0.0963 0.0436 -0.9944
vn -0.1216 0.0664 -0.9904
vn -0.1622 0.1232 -0.9790
vn -0.0005 1.0000 -0.0011
vn -0.0032 0.9995 0.0321
vn -0.0032 0.9995 0.0315
vn -0.0004 1.0000 -0.0010
vn -0.9792 -0.0419 -0.1986
vn -0.9531 -0.1442 -0.2663
vn -0.9531 -0.1478 -0.2643
vn -0.9794 -0.0419 -0.1974
vn -0.7166 -0.6611 -0.2221
vn -0.6881 -0.6937 -0.2130
vn -0.6284 -0.7776 0.0218
vn -0.6284 -0.7775 0.0244
vn -0.7842 -0.4669 -0.4087
vn -0.8759 -0.3293 -0.3526
vn -0.8722 -0.3369 -0.3546
vn -0.7761 -0.4797 -0.4093
vn 0.9415 -0.1414 -0.3058
vn 0.9719 -0.0436 -0.2314
vn 0.9716 -0.0436 -0.2327
vn 0.9413 -0.1440 -0.3052
vn 0.0040 0.9995 0.0313
vn 0.0040 0.9995 0.0318
vn 0.8615 -0.3221 -0.3926
vn 0.8570 -0.3314 -0.3945
vn 0.7686 -0.4557 -0.4490
vn 0.7089 -0.6507 -0.2720
vn 0.6767 -0.6894 -0.2585
vn 0.7598 -0.4703 -0.4489
vn 0.0000 0.0960 -0.9954
vn 0.6254 -0.7796 -0.0342
vn 0.6252 -0.7796 -0.0367
vn -0.0000 -0.0008 1.0000
vn 0.0000 -0.0064 -1.0000
# 64 vertex normals

vt 0.2797 0.5224 0.0000
vt 0.0506 0.5373 0.0000
vt 0.0580 0.3653 0.0000
vt 0.2797 0.3656 0.0000
vt 0.1720 0.1300 0.0000
vt 0.2797 0.1303 0.0000
vt 0.2797 0.1939 0.0000
vt 0.1251 0.1934 0.0000
vt 0.2797 0.2798 0.0000
vt 0.0813 0.2794 0.0000
vt 0.5015 0.3653 0.0000
vt 0.5088 0.5373 0.0000
vt 0.4343 0.1934 0.0000
vt 0.4782 0.2794 0.0000
vt 0.2797 0.0432 0.0000
vt 0.3874 0.1300 0.0000
vt 0.6977 0.9557 0.0000
vt 0.6977 0.7991 0.0000
vt 0.9180 0.7990 0.0000
vt 0.9254 0.9709 0.0000
vt 0.6977 0.5635 0.0000
vt 0.8042 0.5632 0.0000
vt 0.8505 0.6271 0.0000
vt 0.6977 0.6272 0.0000
vt 0.6977 0.7131 0.0000
vt 0.8945 0.7130 0.0000
vt 0.4699 0.9709 0.0000
vt 0.4773 0.7990 0.0000
vt 0.5008 0.7130 0.0000
vt 0.5448 0.6271 0.0000
vt 0.5911 0.5632 0.0000
vt 0.2802 0.6110 0.0000
vt 0.0524 0.6311 0.0000
vt 0.0526 0.6137 0.0000
vt 0.2816 0.5936 0.0000
vt 0.9248 0.1865 0.0000
vt 0.7530 0.1851 0.0000
vt 0.7528 0.1709 0.0000
vt 0.9249 0.1710 0.0000
vt 0.3646 0.7663 0.0000
vt 0.3635 0.7796 0.0000
vt 0.2570 0.7703 0.0000
vt 0.2569 0.7577 0.0000
vt 0.5810 0.1742 0.0000
vt 0.6669 0.1726 0.0000
vt 0.6670 0.1861 0.0000
vt 0.5811 0.1872 0.0000
vt 0.7050 0.3314 0.0000
vt 0.5332 0.3328 0.0000
vt 0.5333 0.3269 0.0000
vt 0.7054 0.3267 0.0000
vt 0.5079 0.6311 0.0000
vt 0.5107 0.6137 0.0000
vt 0.7913 0.3284 0.0000
vt 0.7910 0.3325 0.0000
vt 0.8772 0.3301 0.0000
vt 0.9406 0.3315 0.0000
vt 0.9408 0.3345 0.0000
vt 0.8769 0.3335 0.0000
vt 0.6977 0.4766 0.0000
vt 0.5172 0.1881 0.0000
vt 0.5176 0.1756 0.0000
vt 0.1492 0.7663 0.0000
vt 0.1505 0.7796 0.0000
vt 0.2797 0.5376 0.0000
vt 0.6977 0.9709 0.0000
# 66 texture coords

g shield
usemtl shild_textur
s 65
f 1/1/1 2/2/2 3/3/3 4/4/4 
f 5/5/5 6/6/6 7/7/7 8/8/8 
f 9/9/9 10/10/10 8/8/8 7/7/7 
f 11/11/11 12/12/12 1/1/1 4/4/4 
f 13/13/13 14/14/14 9/9/9 7/7/7 
f 15/15/15 16/16/16 6/6/6 
f 17/17/17 18/18/18 19/19/19 20/20/20 
f 21/21/21 22/22/22 23/23/23 24/24/24 
f 18/18/18 25/25/25 26/26/26 19/19/19 
f 17/17/17 27/27/27 28/28/28 18/18/18 
f 18/18/18 28/28/28 29/29/29 25/25/25 
f 30/30/30 31/31/31 21/21/21 24/24/24 
s 2
f 32/32/32 20/33/33 2/34/34 33/35/35 
s 4
f 20/36/36 19/37/37 3/38/38 2/39/39 
f 5/40/40 22/41/41 34/42/42 15/43/43 
f 8/44/44 10/45/45 26/46/46 23/47/47 
s 8
f 28/48/48 27/49/49 12/50/50 11/51/51 
s 2
f 27/52/52 32/32/32 33/35/35 12/53/53 
s 8
f 14/54/54 29/55/55 28/48/48 11/51/51 
f 13/56/56 16/57/57 31/58/58 30/59/59 
s 65
f 5/5/5 15/15/15 6/6/6 
f 13/13/13 7/7/7 6/6/6 16/16/16 
f 21/21/21 34/60/60 22/22/22 
f 31/31/31 34/60/60 21/21/21 
s 4
f 8/44/44 23/47/47 22/61/41 5/62/40 
s 8
f 16/63/57 15/43/61 34/42/62 31/64/58 
s 65
f 4/4/4 3/3/3 10/10/10 9/9/9 
f 14/14/14 11/11/11 4/4/4 9/9/9 
f 25/25/25 24/24/24 23/23/23 26/26/26 
f 30/30/30 24/24/24 25/25/25 29/29/29 
s 4
f 10/45/45 3/38/38 19/37/37 26/46/46 
s 8
f 13/56/56 30/59/59 29/55/55 14/54/54 
s 64
f 33/65/63 2/2/2 1/1/1 
f 12/12/12 33/65/63 1/1/1 
f 20/20/20 32/66/64 17/17/17 
f 32/66/64 27/27/27 17/17/17 
# 28 polygons - 8 triangles

#
# object twoo
#

v  31.4123 27.7650 34.1080
v  29.7742 27.7475 34.2933
v  30.5117 32.0167 33.7036
v  32.2174 32.0303 33.5311
v  29.7064 27.3953 38.5058
v  31.3428 27.3768 38.3622
v  31.0450 25.5543 38.8810
v  29.4348 25.5548 39.0455
v  31.5770 38.6363 38.9667
v  33.3799 38.6358 38.8022
v  33.2797 37.9434 38.4751
v  31.4854 37.9452 38.6413
v  33.0226 36.2920 34.2559
v  31.2492 36.2886 34.4155
v  31.3153 36.6618 38.6643
v  33.0937 36.6574 38.4949
v  31.2635 36.1798 34.5692
v  30.5261 32.0213 33.8528
v  32.2326 32.0206 33.6882
v  33.0363 36.1793 34.4047
v  31.0662 25.5501 39.0894
v  31.3573 27.4931 38.5063
v  29.7232 27.4936 38.6708
v  29.4561 25.5506 39.2539
v  33.1078 36.5490 38.6492
v  33.2971 37.9028 38.6647
v  31.5027 37.9033 38.8292
v  31.3291 36.5496 38.8138
v  31.4288 27.8629 34.2734
v  29.7888 27.8634 34.4379
v  31.5962 38.6323 39.1753
v  33.3990 38.6317 39.0108
# 32 vertices

vn -0.0763 -0.6545 -0.7522
vn -0.0662 -0.7737 -0.6300
vn -0.1021 0.0163 -0.9946
vn -0.0993 0.0517 -0.9937
vn -0.0710 -0.7309 -0.6787
vn -0.0580 -0.8046 -0.5909
vn -0.0933 -0.2635 -0.9601
vn -0.0980 -0.2667 -0.9588
vn -0.0824 0.4340 -0.8971
vn -0.0817 0.4353 -0.8966
vn -0.0890 0.2389 -0.9670
vn -0.0909 0.2056 -0.9744
vn -0.0593 0.7574 -0.6502
vn -0.0646 0.7276 -0.6829
vn -0.0680 0.6857 -0.7247
vn -0.0683 0.6618 -0.7465
vn 0.0635 -0.7294 0.6811
vn 0.0964 -0.0159 0.9952
vn 0.0954 -0.0513 0.9941
vn 0.0600 -0.7582 0.6493
vn 0.0973 0.2733 0.9570
vn 0.0590 0.8097 0.5838
vn 0.0689 0.7316 0.6783
vn 0.0979 0.2737 0.9568
vn 0.0677 -0.6722 0.7372
vn 0.0882 -0.2509 0.9640
vn 0.0892 -0.2218 0.9710
vn 0.0660 -0.6950 0.7160
vn 0.0745 0.6613 0.7464
vn 0.0637 0.7719 0.6326
vn -0.9810 0.1725 0.0894
vn -0.9810 0.1719 0.0896
vn -0.9952 0.0085 0.0977
vn -0.9908 0.0480 0.1262
vn 0.9768 -0.1864 -0.1053
vn 0.9766 -0.1875 -0.1057
vn 0.9846 -0.1749 0.0042
vn 0.9839 -0.1784 0.0072
vn -0.0023 -0.9998 -0.0201
vn -0.0023 -0.9998 -0.0198
vn -0.9802 0.1724 0.0972
vn -0.9886 0.1501 0.0106
vn -0.9872 0.1590 0.0081
vn -0.9791 0.1748 0.1035
vn 0.9892 -0.1463 0.0104
vn 0.9787 -0.1775 -0.1030
vn 0.9795 -0.1765 -0.0971
vn 0.9898 -0.1417 0.0141
vn 0.0020 0.9998 0.0192
vn 0.0021 0.9998 0.0195
vn 0.9950 -0.0137 -0.0984
vn 0.9867 -0.1167 -0.1135
vn 0.9865 -0.1146 -0.1169
vn 0.9921 -0.0399 -0.1188
vn -0.9880 0.1053 0.1128
vn -0.9878 0.1036 0.1161
vn -0.9917 0.0855 0.0957
vn -0.9918 0.0878 0.0928
vn -0.9890 0.1468 -0.0169
vn -0.9883 0.1510 -0.0209
vn 0.9942 -0.0199 -0.1060
vn 0.9896 -0.0546 -0.1329
vn -0.9930 0.0305 0.1144
vn -0.9951 0.0118 0.0983
vn 0.0816 -0.4368 0.8959
vn 0.0819 -0.4362 0.8961
vn 0.9907 -0.0997 -0.0924
vn 0.9907 -0.0972 -0.0955
# 68 vertex normals

vt 0.2930 0.0158 0.1087
vt 0.5857 -0.0352 0.1436
vt 0.6585 0.4643 0.0325
vt 0.3535 0.5170 0.0000
vt 0.5809 -0.0767 0.9375
vt 0.2869 -0.0297 0.9104
vt 0.2527 -0.2424 0.8938
vt 0.5412 -0.2906 0.9248
vt 0.7854 1.2366 0.9607
vt 0.4624 1.2905 0.9297
vt 0.4471 1.2101 0.9317
vt 0.7687 1.1565 0.9630
vt 0.4143 0.1436 -0.0352
vt 0.7070 0.1087 0.0158
vt 0.7131 0.9104 -0.0297
vt 0.4191 0.9375 -0.0767
vt 0.4139 0.1366 1.0177
vt 0.7314 0.1667 0.9642
vt 0.7375 0.9673 1.0079
vt 0.4187 0.9354 1.0607
vt 0.2763 0.9524 0.1956
vt 0.3439 0.4653 0.0606
vt 0.6496 0.5163 0.0296
vt 0.5940 1.0055 0.1646
vt 0.7513 -0.2423 0.9331
vt 0.7102 -0.0162 0.9376
vt 0.4174 -0.0652 0.9686
vt 0.4628 -0.2905 0.9641
vt 0.5890 1.0490 0.9645
vt 0.5580 1.2061 0.9674
vt 0.2364 1.1524 0.9984
vt 0.2703 0.9958 0.9955
vt 0.2898 0.9376 -0.0162
vt 0.2948 0.1399 0.0273
vt 0.5886 0.1709 -0.0218
vt 0.5826 0.9686 -0.0652
vt 0.2703 0.9955 0.9958
vt 0.2763 0.1956 0.9524
vt 0.5940 0.1646 1.0055
vt 0.5890 0.9645 1.0490
vt 0.5357 0.0325 0.3415
vt 0.5347 0.0606 0.3439
vt 0.0476 0.1956 0.2763
vt 0.0358 0.1667 0.2686
vt 0.5170 0.0000 0.6465
vt 0.5163 0.0296 0.6496
vt 0.0273 0.1399 0.7052
vt 0.0158 0.1087 0.7070
vt 0.7513 0.9331 -0.2423
vt 0.4628 0.9641 -0.2905
vt 0.4588 0.9248 -0.2906
vt 0.7473 0.8938 -0.2424
vt 1.2905 0.9641 0.4628
vt 1.0652 0.9686 0.4174
vt 1.0767 0.9375 0.4191
vt 1.2906 0.9248 0.4588
vt -0.0162 0.9376 0.7102
vt -0.2423 0.9331 0.7513
vt -0.2424 0.8938 0.7473
vt -0.0297 0.9104 0.7131
vt 0.7818 1.0000 1.2367
vt 0.4588 0.9690 1.2906
vt 0.4624 0.9297 1.2905
vt 0.7854 0.9607 1.2366
vt 1.0607 0.9354 0.5813
vt 1.2101 0.9317 0.5529
vt 1.2061 0.9674 0.5580
vt 1.0490 0.9645 0.5890
vt -0.1565 0.9630 0.2313
vt -0.1524 0.9984 0.2364
vt -0.2367 1.0000 0.2182
vt -0.2366 0.9607 0.2146
vt 1.0218 0.1709 0.4114
vt 1.0352 0.1436 0.4143
vt 1.0055 0.1646 0.5940
vt 1.0177 0.1366 0.5861
vt 0.0042 0.9955 0.2703
vt -0.0079 0.9673 0.2625
vt 0.7314 0.9642 0.1667
vt 0.4139 1.0177 0.1366
vt 0.4114 -0.0218 0.1709
vt 0.7052 0.0273 0.1399
vt 0.4187 1.0607 0.9354
vt 0.7375 1.0079 0.9673
vt 0.5412 1.2906 0.9690
vt 0.2182 1.2367 1.0000
vt 1.2905 0.9297 0.5376
vt 1.2906 0.9690 0.5412
# 88 texture coords

g twoo
usemtl skin
s 65
f 35/67/65 36/68/66 37/69/67 38/70/68 
f 39/71/69 40/72/70 41/73/71 42/74/72 
f 43/75/73 44/76/74 45/77/75 46/78/76 
f 36/79/66 35/80/65 40/81/70 39/82/69 
f 47/83/77 48/84/78 49/85/79 50/86/80 
f 51/87/81 52/88/82 53/89/83 54/90/84 
f 55/91/85 56/92/86 57/93/87 58/94/88 
f 59/95/89 60/96/90 61/97/91 62/98/92 
f 56/99/86 63/100/93 64/101/94 57/102/87 
f 62/103/92 51/104/81 54/105/84 59/106/89 
s 2
f 37/107/95 52/108/96 51/109/97 48/110/98 
f 38/111/99 53/112/100 63/113/101 35/114/102 
s 4
f 55/115/103 58/116/104 42/117/104 41/118/103 
s 2
f 58/119/105 57/120/106 39/121/107 42/122/108 
f 56/123/109 55/124/110 41/125/111 40/126/112 
s 4
f 65/127/113 66/128/114 44/129/114 43/130/113 
s 2
f 50/131/115 45/132/116 60/133/117 59/134/118 
f 46/135/119 61/136/120 65/137/121 43/138/122 
f 57/120/106 64/139/123 36/140/124 39/121/107 
f 63/113/101 56/123/109 40/126/112 35/114/102 
f 59/134/118 54/141/125 47/142/126 50/131/115 
f 51/109/97 62/143/127 49/144/128 48/110/98 
s 65
f 48/145/78 47/146/77 38/70/68 37/69/67 
f 52/88/82 64/147/94 63/148/93 53/89/83 
s 2
f 37/107/95 36/140/124 64/139/123 52/108/96 
f 38/111/99 47/142/126 54/141/125 53/112/100 
s 65
f 50/149/80 49/150/79 46/78/76 45/77/75 
f 60/96/90 66/151/129 65/152/130 61/97/91 
s 2
f 45/132/116 44/153/131 66/154/132 60/133/117 
f 49/144/128 62/143/127 61/136/120 46/135/119 
# 30 polygons

#
# object Object002
#

v  6.0927 19.6780 38.2586
v  4.4380 31.6780 38.4041
v  5.8145 31.6785 38.5297
v  7.3222 19.6785 38.3843
v  35.2109 31.6781 38.4217
v  36.5875 31.6775 38.2961
v  34.8062 19.6775 38.1506
v  33.5768 19.6781 38.2762
# 8 vertices

vn 0.1009 0.0248 -0.9946
vn 0.0909 0.0246 -0.9956
vn 0.0915 0.0246 -0.9955
vn 0.1016 0.0248 -0.9945
vn -0.0915 0.0256 -0.9955
vn -0.0908 0.0256 -0.9955
vn -0.1009 0.0259 -0.9946
vn -0.1016 0.0259 -0.9945
# 8 vertex normals

vt 0.7967 0.7131 0.0000
vt 0.8085 0.7990 0.0000
vt 0.7987 0.7990 0.0000
vt 0.7879 0.7131 0.0000
vt 0.5881 0.7990 0.0000
vt 0.5783 0.7990 0.0000
vt 0.5910 0.7131 0.0000
vt 0.5998 0.7131 0.0000
# 8 texture coords

g Object002
usemtl shild_textur
s 65
f 67/155/133 68/156/134 69/157/135 70/158/136 
f 71/159/137 72/160/138 73/161/139 74/162/140 
# 2 polygons

#
# object twoo001
#

v  5.5521 27.7650 33.6915
v  3.9141 27.7475 33.8768
v  4.6516 32.0167 33.2871
v  6.3573 32.0303 33.1146
v  3.8463 27.3953 38.0893
v  5.4826 27.3768 37.9457
v  5.1849 25.5543 38.6798
v  3.5747 25.5548 38.8443
v  7.2336 36.6574 38.0784
v  5.4552 36.6618 38.2478
v  5.7169 38.6363 39.1518
v  7.5198 38.6358 38.9872
v  7.1625 36.2920 33.8394
v  5.3891 36.2886 33.9990
v  5.4034 36.1798 34.1527
v  4.6660 32.0213 33.4363
v  6.3724 32.0206 33.2717
v  7.1762 36.1793 33.9882
v  5.2061 25.5501 38.8882
v  5.4972 27.4931 38.0898
v  3.8631 27.4936 38.2543
v  3.5960 25.5506 39.0527
v  5.7361 38.6323 39.3604
v  5.4690 36.5496 38.3973
v  7.2477 36.5490 38.2327
v  7.5388 38.6317 39.1958
v  5.5687 27.8629 33.8569
v  3.9286 27.8634 34.0214
# 28 vertices

vn -0.0763 -0.6545 -0.7522
vn -0.0662 -0.7737 -0.6300
vn -0.1021 0.0163 -0.9946
vn -0.0993 0.0517 -0.9937
vn -0.0670 -0.7693 -0.6354
vn -0.0550 -0.8317 -0.5525
vn -0.0908 -0.3634 -0.9272
vn -0.0947 -0.3658 -0.9258
vn -0.0517 0.8192 -0.5712
vn -0.0529 0.8196 -0.5704
vn -0.0833 0.4250 -0.9013
vn -0.0821 0.4258 -0.9011
vn -0.0593 0.7574 -0.6502
vn -0.0646 0.7276 -0.6829
vn 0.0635 -0.7294 0.6811
vn 0.0964 -0.0159 0.9952
vn 0.0954 -0.0513 0.9941
vn 0.0600 -0.7582 0.6493
vn 0.0941 0.3669 0.9255
vn 0.0554 0.8347 0.5479
vn 0.0648 0.7677 0.6375
vn 0.0947 0.3672 0.9253
vn 0.0825 -0.4274 0.9003
vn 0.0524 -0.8206 0.5691
vn 0.0523 -0.8195 0.5707
vn 0.0820 -0.4277 0.9002
vn 0.0745 0.6613 0.7464
vn 0.0637 0.7719 0.6326
vn -0.9810 0.1725 0.0894
vn -0.9810 0.1719 0.0896
vn -0.9952 0.0085 0.0977
vn -0.9908 0.0480 0.1262
vn 0.9768 -0.1864 -0.1053
vn 0.9766 -0.1875 -0.1057
vn 0.9846 -0.1749 0.0042
vn 0.9839 -0.1784 0.0072
vn -0.0023 -0.9998 -0.0201
vn -0.0023 -0.9998 -0.0198
vn -0.9783 0.1833 0.0968
vn -0.9885 0.1506 0.0103
vn -0.9871 0.1602 0.0074
vn -0.9770 0.1866 0.1035
vn 0.9893 -0.1459 0.0105
vn 0.9766 -0.1886 -0.1030
vn 0.9775 -0.1871 -0.0974
vn 0.9900 -0.1405 0.0131
vn 0.0020 0.9998 0.0192
vn 0.0021 0.9998 0.0195
vn 0.9905 -0.0989 -0.0959
vn 0.9945 -0.0171 -0.1031
vn 0.9970 0.0245 -0.0727
vn 0.9906 -0.1009 -0.0924
vn -0.9951 0.0124 0.0984
vn -0.9921 0.0843 0.0927
vn -0.9920 0.0836 0.0947
vn -0.9970 -0.0244 0.0735
vn -0.9890 0.1468 -0.0169
vn -0.9883 0.1510 -0.0209
vn 0.9942 -0.0199 -0.1060
vn 0.9896 -0.0546 -0.1329
# 60 vertex normals

vt 0.2930 0.0158 0.1087
vt 0.5857 -0.0352 0.1436
vt 0.6585 0.4643 0.0325
vt 0.3535 0.5170 0.0000
vt 0.5809 -0.0767 0.9375
vt 0.2869 -0.0297 0.9104
vt 0.2527 -0.2424 0.8938
vt 0.5412 -0.2906 0.9248
vt 0.4187 1.0607 0.9354
vt 0.7375 1.0079 0.9673
vt 0.7854 1.2366 0.9607
vt 0.4624 1.2905 0.9297
vt 0.4143 0.1436 -0.0352
vt 0.7070 0.1087 0.0158
vt 0.7131 0.9104 -0.0297
vt 0.4191 0.9375 -0.0767
vt 0.4139 0.1366 1.0177
vt 0.7314 0.1667 0.9642
vt 0.7375 0.9673 1.0079
vt 0.4187 0.9354 1.0607
vt 0.2763 0.9524 0.1956
vt 0.3439 0.4653 0.0606
vt 0.6496 0.5163 0.0296
vt 0.5940 1.0055 0.1646
vt 0.7513 -0.2423 0.9331
vt 0.7102 -0.0162 0.9376
vt 0.4174 -0.0652 0.9686
vt 0.4628 -0.2905 0.9641
vt 0.2182 1.2367 1.0000
vt 0.2703 0.9958 0.9955
vt 0.5890 1.0490 0.9645
vt 0.5412 1.2906 0.9690
vt 0.2898 0.9376 -0.0162
vt 0.2948 0.1399 0.0273
vt 0.5886 0.1709 -0.0218
vt 0.5826 0.9686 -0.0652
vt 0.2703 0.9955 0.9958
vt 0.2763 0.1956 0.9524
vt 0.5940 0.1646 1.0055
vt 0.5890 0.9645 1.0490
vt 0.5357 0.0325 0.3415
vt 0.5347 0.0606 0.3439
vt 0.0476 0.1956 0.2763
vt 0.0358 0.1667 0.2686
vt 0.5170 0.0000 0.6465
vt 0.5163 0.0296 0.6496
vt 0.0273 0.1399 0.7052
vt 0.0158 0.1087 0.7070
vt 0.7513 0.9331 -0.2423
vt 0.4628 0.9641 -0.2905
vt 0.4588 0.9248 -0.2906
vt 0.7473 0.8938 -0.2424
vt 1.2905 0.9641 0.4628
vt 1.0652 0.9686 0.4174
vt 1.0767 0.9375 0.4191
vt 1.2906 0.9248 0.4588
vt -0.0162 0.9376 0.7102
vt -0.2423 0.9331 0.7513
vt -0.2424 0.8938 0.7473
vt -0.0297 0.9104 0.7131
vt 0.7818 1.0000 1.2367
vt 0.4588 0.9690 1.2906
vt 0.4624 0.9297 1.2905
vt 0.7854 0.9607 1.2366
vt 1.2906 0.9690 0.5412
vt 1.0490 0.9645 0.5890
vt 1.0607 0.9354 0.5813
vt 1.2905 0.9297 0.5376
vt 0.0042 0.9955 0.2703
vt -0.2367 1.0000 0.2182
vt -0.2366 0.9607 0.2146
vt -0.0079 0.9673 0.2625
vt 1.0218 0.1709 0.4114
vt 1.0352 0.1436 0.4143
vt 1.0055 0.1646 0.5940
vt 1.0177 0.1366 0.5861
vt 0.7314 0.9642 0.1667
vt 0.4139 1.0177 0.1366
vt 0.4114 -0.0218 0.1709
vt 0.7052 0.0273 0.1399
# 80 texture coords

g twoo001
usemtl skin
s 65
f 75/163/141 76/164/142 77/165/143 78/166/144 
f 79/167/145 80/168/146 81/169/147 82/170/148 
f 83/171/149 84/172/150 85/173/151 86/174/152 
f 76/175/142 75/176/141 80/177/146 79/178/145 
f 87/179/153 88/180/154 84/181/150 83/182/149 
f 89/183/155 90/184/156 91/185/157 92/186/158 
f 93/187/159 94/188/160 95/189/161 96/190/162 
f 97/191/163 98/192/164 99/193/165 100/194/166 
f 94/195/160 101/196/167 102/197/168 95/198/161 
f 98/199/164 89/200/155 92/201/158 99/202/165 
s 2
f 77/203/169 90/204/170 89/205/171 88/206/172 
f 78/207/173 91/208/174 101/209/175 75/210/176 
s 4
f 93/211/177 96/212/178 82/213/178 81/214/177 
s 2
f 96/215/179 95/216/180 79/217/181 82/218/182 
f 94/219/183 93/220/184 81/221/185 80/222/186 
s 4
f 97/223/187 100/224/188 86/225/188 85/226/187 
s 2
f 100/227/189 99/228/190 83/229/191 86/230/192 
f 98/231/193 97/232/194 85/233/195 84/234/196 
f 95/216/180 102/235/197 76/236/198 79/217/181 
f 101/209/175 94/219/183 80/222/186 75/210/176 
f 99/228/190 92/237/199 87/238/200 83/229/191 
f 89/205/171 98/231/193 84/234/196 88/206/172 
s 65
f 88/239/154 87/240/153 78/166/144 77/165/143 
f 90/184/156 102/241/168 101/242/167 91/185/157 
s 2
f 77/203/169 76/236/198 102/235/197 90/204/170 
f 78/207/173 87/238/200 92/237/199 91/208/174 
# 26 polygons

